<svg width="1024" height="1024" viewBox="0 0 1024 1024" fill="none" xmlns="http://www.w3.org/2000/svg" style="background-color: transparent;">
<rect x="0.5" y="0.5" width="1023" height="1023" fill="#553C70"/>
<rect x="0.5" y="0.5" width="1023" height="1023" stroke="black"/>
<path d="M86.617 194.67C85.9274 193.572 84.5128 193.184 83.3591 193.775C82.2054 194.367 81.6956 195.743 82.1848 196.943C175.345 425.57 260.579 581.278 354.126 700.577C447.696 819.905 549.497 902.696 675.627 985.589C676.603 986.231 677.894 986.111 678.735 985.3C679.576 984.489 679.744 983.203 679.138 982.204C629.92 900.995 607.456 844.652 584.325 740.944C625.459 751.621 636.477 755.305 676.192 768.866C677.36 769.265 678.644 768.752 679.216 767.658C679.787 766.564 679.475 765.217 678.481 764.486C314.555 496.796 201.566 377.682 86.617 194.67Z" fill="#B689C6" stroke="#8C6498" stroke-width="5" stroke-miterlimit="16" stroke-linejoin="round"/>
<mask id="path-3-outside-1_224_3" maskUnits="userSpaceOnUse" x="64.5" y="30" width="957" height="829" fill="black">
<rect fill="white" x="64.5" y="30" width="957" height="829"/>
<path fill-rule="evenodd" clip-rule="evenodd" d="M372.94 342.809C219.749 513.084 141.784 677.941 96 853.5C264.432 834.835 613.381 723.738 908.32 487.56C939.603 486.851 971.187 485.652 1006.5 484C988.14 472.976 969.457 462.497 950.557 452.54C972.793 433.447 994.643 413.605 1016 393C983.92 408.873 952.995 424.044 923.121 438.519C780.625 367.883 628.832 325.655 511.593 301.662C563.208 220.505 631.482 134.006 726.5 36C605.534 122.162 507.036 205.004 426.445 286.235C413.598 284.219 401.581 282.482 390.5 281C313.171 270.658 258.272 266.452 201.698 262.118C161.655 259.05 120.771 255.918 70.5 250.5C190.162 278.546 290.325 310.706 372.94 342.809ZM464.987 381.588C416.1 473.584 385.564 561.051 357 654C489.56 629.522 632.899 574.693 818.634 488.234C771.191 487.897 717.998 486.521 649.5 484C612.292 458.351 552.116 421.377 464.987 381.588Z"/>
</mask>
<path fill-rule="evenodd" clip-rule="evenodd" d="M372.94 342.809C219.749 513.084 141.784 677.941 96 853.5C264.432 834.835 613.381 723.738 908.32 487.56C939.603 486.851 971.187 485.652 1006.5 484C988.14 472.976 969.457 462.497 950.557 452.54C972.793 433.447 994.643 413.605 1016 393C983.92 408.873 952.995 424.044 923.121 438.519C780.625 367.883 628.832 325.655 511.593 301.662C563.208 220.505 631.482 134.006 726.5 36C605.534 122.162 507.036 205.004 426.445 286.235C413.598 284.219 401.581 282.482 390.5 281C313.171 270.658 258.272 266.452 201.698 262.118C161.655 259.05 120.771 255.918 70.5 250.5C190.162 278.546 290.325 310.706 372.94 342.809ZM464.987 381.588C416.1 473.584 385.564 561.051 357 654C489.56 629.522 632.899 574.693 818.634 488.234C771.191 487.897 717.998 486.521 649.5 484C612.292 458.351 552.116 421.377 464.987 381.588Z" fill="#EEDFF1"/>
<path d="M96 853.5L91.1618 852.238C90.7465 853.831 91.1415 855.526 92.2181 856.771C93.2947 858.016 94.9149 858.651 96.5507 858.47L96 853.5ZM372.94 342.809L376.657 346.153C377.756 344.932 378.185 343.249 377.804 341.651C377.424 340.053 376.282 338.743 374.751 338.148L372.94 342.809ZM908.32 487.56L908.206 482.561C907.109 482.586 906.051 482.971 905.194 483.657L908.32 487.56ZM1006.5 484L1006.73 488.995C1008.93 488.892 1010.81 487.359 1011.35 485.223C1011.89 483.086 1010.96 480.848 1009.07 479.713L1006.5 484ZM950.557 452.54L947.3 448.747C946.044 449.825 945.403 451.455 945.588 453.1C945.774 454.745 946.762 456.192 948.226 456.964L950.557 452.54ZM1016 393L1019.47 396.598C1021.25 394.887 1021.51 392.137 1020.09 390.121C1018.67 388.106 1015.99 387.425 1013.78 388.519L1016 393ZM923.121 438.519L920.9 442.999C922.285 443.686 923.91 443.693 925.301 443.019L923.121 438.519ZM511.593 301.662L507.374 298.979C506.491 300.367 506.348 302.101 506.99 303.615C507.633 305.13 508.979 306.231 510.591 306.561L511.593 301.662ZM726.5 36L730.09 39.4804C731.889 37.6242 731.977 34.7021 730.292 32.7412C728.607 30.7804 725.705 30.4275 723.599 31.9275L726.5 36ZM426.445 286.235L425.67 291.174C427.256 291.423 428.865 290.896 429.995 289.756L426.445 286.235ZM390.5 281L391.163 276.044L391.163 276.044L390.5 281ZM201.698 262.118L201.316 267.103L201.316 267.103L201.698 262.118ZM70.5 250.5L71.0358 245.529C68.4087 245.246 66.0149 247.055 65.5711 249.66C65.1272 252.265 66.7865 254.765 69.359 255.368L70.5 250.5ZM464.987 381.588L467.064 377.04C464.658 375.942 461.813 376.907 460.571 379.242L464.987 381.588ZM357 654L352.221 652.531C351.707 654.202 352.104 656.02 353.266 657.325C354.429 658.631 356.189 659.234 357.908 658.917L357 654ZM818.634 488.234L820.744 492.767C822.864 491.78 824.017 489.455 823.519 487.17C823.022 484.885 821.008 483.25 818.669 483.234L818.634 488.234ZM649.5 484L646.662 488.117C647.445 488.656 648.366 488.962 649.316 488.997L649.5 484ZM100.838 854.762C146.439 679.907 224.046 515.783 376.657 346.153L369.223 339.465C215.451 510.385 137.13 675.974 91.1618 852.238L100.838 854.762ZM905.194 483.657C611.012 719.23 262.96 829.967 95.4493 848.53L96.5507 858.47C265.904 839.702 615.751 728.247 911.445 491.463L905.194 483.657ZM1006.27 479.005C970.979 480.656 939.438 481.853 908.206 482.561L908.433 492.559C939.768 491.848 971.394 490.647 1006.73 488.995L1006.27 479.005ZM948.226 456.964C967.049 466.88 985.651 477.313 1003.93 488.287L1009.07 479.713C990.629 468.638 971.865 458.114 952.887 448.116L948.226 456.964ZM1012.53 389.402C991.243 409.938 969.465 429.714 947.3 448.747L953.814 456.333C976.121 437.18 998.042 417.273 1019.47 396.598L1012.53 389.402ZM925.301 443.019C955.19 428.537 986.128 413.359 1018.22 397.481L1013.78 388.519C981.713 404.387 950.8 419.552 920.94 434.02L925.301 443.019ZM510.591 306.561C627.574 330.501 778.918 372.617 920.9 442.999L925.341 434.039C782.332 363.148 630.09 320.809 512.596 296.764L510.591 306.561ZM722.91 32.5196C627.7 130.724 559.202 217.487 507.374 298.979L515.812 304.346C567.214 223.524 635.264 137.289 730.09 39.4804L722.91 32.5196ZM429.995 289.756C510.349 208.763 608.621 126.102 729.401 40.0725L723.599 31.9275C602.447 118.222 503.723 201.244 422.896 282.713L429.995 289.756ZM389.837 285.956C400.881 287.433 412.86 289.164 425.67 291.174L427.221 281.295C414.336 279.273 402.282 277.531 391.163 276.044L389.837 285.956ZM201.316 267.103C257.877 271.437 312.657 275.634 389.837 285.956L391.163 276.044C313.685 265.682 258.668 261.468 202.08 257.133L201.316 267.103ZM69.9642 255.471C120.32 260.898 161.273 264.035 201.316 267.103L202.08 257.133C162.036 254.065 121.222 250.937 71.0358 245.529L69.9642 255.471ZM374.751 338.148C291.914 305.959 191.527 273.73 71.641 245.632L69.359 255.368C188.797 283.361 288.735 315.452 371.129 347.469L374.751 338.148ZM460.571 379.242C411.466 471.651 380.82 559.467 352.221 652.531L361.779 655.469C390.308 562.636 420.735 475.518 469.402 383.935L460.571 379.242ZM357.908 658.917C491.109 634.32 634.912 579.271 820.744 492.767L816.524 483.701C630.886 570.115 488.012 624.723 356.092 649.083L357.908 658.917ZM818.669 483.234C771.295 482.898 718.157 481.523 649.684 479.003L649.316 488.997C717.839 491.518 771.086 492.896 818.598 493.234L818.669 483.234ZM652.338 479.883C614.9 454.075 554.47 416.955 467.064 377.04L462.91 386.137C549.762 425.799 609.685 462.626 646.662 488.117L652.338 479.883Z" fill="#8C6498" mask="url(#path-3-outside-1_224_3)"/>
<path fill-rule="evenodd" clip-rule="evenodd" d="M286.548 448.744C269.02 472.651 252.822 496.517 237.833 520.388C294.898 621.123 352.447 700.475 414.714 768.009C468.04 747.495 523.981 723.198 580.984 694.902C547.003 669.163 515.595 644.88 486.455 621.797C441.575 635.569 398.753 646.29 357 654C368.339 617.102 379.989 581.067 392.975 545.27C352.689 511.003 317.679 479.219 286.548 448.744ZM108.791 254.381C113.829 254.859 118.78 255.317 123.658 255.758C127.836 261.838 132.047 267.868 136.302 273.857C128.853 271.208 121.311 268.528 113.675 265.816C112.049 262.026 110.421 258.214 108.791 254.381Z" fill="#F7E6F5"/>
</svg>
